<svg width="12" height="12" viewBox="0 0 12 12" fill="none" xmlns="http://www.w3.org/2000/svg">
<path d="M11.6288 10.212L8.78612 7.79455C8.4921 7.52978 8.17783 7.40902 7.92431 7.42027C8.59561 6.63422 9.00063 5.6149 9.00063 4.50032C9.00063 2.01464 6.98599 0 4.50032 0C2.01464 0 0 2.01464 0 4.50032C0 6.98599 2.01464 9.00063 4.50032 9.00063C5.6149 9.00063 6.63422 8.59561 7.42027 7.92431C7.40827 8.17783 7.52978 8.4921 7.79455 8.78612L10.212 11.6288C10.626 12.0886 11.3018 12.1276 11.7143 11.7151C12.1269 11.3025 12.0879 10.626 11.6281 10.2127L11.6288 10.212ZM4.50032 7.49978C2.84345 7.49978 1.50011 6.15643 1.50011 4.49957C1.50011 2.8427 2.84345 1.49936 4.50032 1.49936C6.15718 1.49936 7.50053 2.8427 7.50053 4.49957C7.50053 6.15643 6.15718 7.49978 4.50032 7.49978Z" fill="#0F172A"/>
</svg>
