<svg width="18" height="18" viewBox="0 0 18 18" fill="none" xmlns="http://www.w3.org/2000/svg">
<path fill-rule="evenodd" clip-rule="evenodd" d="M16.6154 1.28571H15.2308V3.21429C15.2308 3.57429 14.9262 3.85714 14.5385 3.85714H11.7692C11.3815 3.85714 11.0769 3.57429 11.0769 3.21429V1.28571H6.92308V3.21429C6.92308 3.57429 6.61846 3.85714 6.23077 3.85714H3.46154C3.07385 3.85714 2.76923 3.57429 2.76923 3.21429V1.28571H1.38462C0.623077 1.28571 0 1.86429 0 2.57143V16.7143C0 17.4214 0.623077 18 1.38462 18H16.6154C17.3769 18 18 17.4214 18 16.7143V2.57143C18 1.86429 17.3769 1.28571 16.6154 1.28571ZM16.6154 16.7143H1.38462V5.14286H16.6154V16.7143ZM5.53846 2.57143H4.15385V0H5.53846V2.57143ZM13.8462 2.57143H12.4615V0H13.8462V2.57143Z" fill="#248CD7"/>
<path d="M3.02973 7.29693H6.33743V10.3684H3.02973V7.29693Z" fill="#248CD7"/>
<path d="M7.40465 7.29693H10.7123V10.3684H7.40465V7.29693Z" fill="#248CD7"/>
<path d="M11.7796 7.29693H15.0873V10.3684H11.7796V7.29693Z" fill="#248CD7"/>
<path d="M3.02973 11.8019H6.33743V14.8733H3.02973V11.8019Z" fill="#248CD7"/>
<path d="M7.40465 11.8019H10.7123V14.8733H7.40465V11.8019Z" fill="#248CD7"/>
<path d="M11.7796 11.8019H15.0873V14.8733H11.7796V11.8019Z" fill="#248CD7"/>
</svg>
