<svg width="5" height="10" viewBox="0 0 5 10" fill="none" xmlns="http://www.w3.org/2000/svg">
<path fill-rule="evenodd" clip-rule="evenodd" d="M0 2.38095C0 1.06599 1.06599 0 2.38095 0C3.69592 0 4.7619 1.06599 4.7619 2.38095C4.7619 3.53284 3.94392 4.49367 2.85714 4.71428V9.52381C2.85714 9.7868 2.64395 10 2.38095 10C2.11796 10 1.90476 9.7868 1.90476 9.52381V4.71428C0.817981 4.49367 0 3.53284 0 2.38095ZM2.38095 0.952381C1.59197 0.952381 0.952381 1.59197 0.952381 2.38095C0.952381 3.16993 1.59197 3.80952 2.38095 3.80952C3.16993 3.80952 3.80952 3.16993 3.80952 2.38095C3.80952 1.59197 3.16993 0.952381 2.38095 0.952381Z" fill="#64748B"/>
</svg>
