<svg width="19" height="19" viewBox="0 0 19 19" fill="none" xmlns="http://www.w3.org/2000/svg">
<path d="M11.5904 0.25C11.4692 0.25 11.3459 0.286272 11.2329 0.370151L3.94863 5.6228H0.578767C0.397945 5.6228 0.25 5.78602 0.25 5.98552V12.5145C0.25 12.714 0.397945 12.8772 0.578767 12.8772H3.94863L11.2329 18.1298C11.3459 18.2115 11.4712 18.25 11.5904 18.25C11.9336 18.25 12.25 17.9485 12.25 17.5223V0.977708C12.25 0.551511 11.9336 0.25 11.5904 0.25ZM10.7705 15.847L4.75822 11.5102L4.38836 11.245H1.72945V7.25504H4.38836L4.75616 6.9898L10.7705 2.65302V15.847ZM17.9212 8.43388H15.2911C15.1103 8.43388 14.9623 8.5971 14.9623 8.7966V9.7034C14.9623 9.9029 15.1103 10.0661 15.2911 10.0661H17.9212C18.1021 10.0661 18.25 9.9029 18.25 9.7034V8.7966C18.25 8.5971 18.1021 8.43388 17.9212 8.43388ZM17.0603 14.3689L14.7938 12.9248C14.7566 12.9013 14.7155 12.8861 14.673 12.8801C14.6304 12.8741 14.5872 12.8774 14.5458 12.8898C14.5044 12.9022 14.4656 12.9235 14.4316 12.9525C14.3977 12.9814 14.3693 13.0175 14.3479 13.0586L13.939 13.8407C13.8486 14.013 13.9021 14.2351 14.0582 14.3349L16.3247 15.779C16.3619 15.8025 16.403 15.8177 16.4455 15.8237C16.4881 15.8297 16.5313 15.8264 16.5727 15.814C16.6141 15.8016 16.6529 15.7803 16.6868 15.7513C16.7208 15.7224 16.7492 15.6863 16.7705 15.6452L17.1795 14.8631C17.2699 14.6908 17.2144 14.4686 17.0603 14.3689ZM14.3459 5.44144C14.3672 5.48252 14.3956 5.51857 14.4296 5.54753C14.4635 5.57649 14.5023 5.59779 14.5437 5.61021C14.5851 5.62263 14.6283 5.62593 14.6709 5.61992C14.7135 5.61391 14.7545 5.59871 14.7918 5.57519L17.0582 4.13111C17.2144 4.03136 17.2678 3.80919 17.1774 3.6369L16.7705 2.85705C16.7492 2.81597 16.7208 2.77991 16.6868 2.75096C16.6529 2.722 16.6141 2.7007 16.5727 2.68828C16.5313 2.67586 16.4881 2.67256 16.4455 2.67857C16.403 2.68458 16.3619 2.69978 16.3247 2.7233L14.0582 4.16738C13.9832 4.21564 13.9285 4.29473 13.9062 4.38735C13.8838 4.47996 13.8957 4.57856 13.939 4.66159L14.3459 5.44144Z" fill="#248CD7" stroke="#248CD7" stroke-width="0.5"/>
</svg>
