<svg width="128" height="33" viewBox="0 0 128 33" fill="none" xmlns="http://www.w3.org/2000/svg">
<path d="M9.52 5.82078C7.52 8.12078 4.56 9.56078 1.38 9.54078V6.36078C4.72 6.36078 7.96 3.80078 8.5 0.040781L11.94 0.540781C11.8 1.50078 11.52 2.40078 11.14 3.26078L18.2 6.72078L16.62 9.56078L9.52 5.82078ZM18.26 10.8208V13.9408H11.36V17.7808H7.88V13.9408H0.98V10.8208H18.26ZM36.9383 1.72078V4.68078H20.7783V1.72078H27.1183V0.0807805H30.5983V1.72078H36.9383ZM30.5783 13.7808H37.4983V16.7808H20.2183V13.7808H27.1383V12.2808C23.7183 12.0408 21.3583 10.9808 21.3583 8.80078C21.3583 6.26078 24.5383 5.26078 28.8583 5.26078C33.1783 5.26078 36.3583 6.26078 36.3583 8.80078C36.3583 10.9808 33.9983 12.0408 30.5783 12.2808V13.7808ZM24.8183 8.80078C24.8183 9.40078 26.5183 9.62078 28.8583 9.62078C31.1983 9.62078 32.8983 9.40078 32.8983 8.80078C32.8983 8.20078 31.1983 7.98078 28.8583 7.98078C26.5183 7.98078 24.8183 8.20078 24.8183 8.80078ZM45.4366 8.42078C44.1166 9.98078 42.1166 11.1008 39.7566 11.1608V8.22078C41.9566 8.02078 43.3766 6.42078 43.7366 4.58078H39.9566V1.76078H43.7166V0.000780344H47.1566V1.76078H50.9166V4.06078H52.6766V0.30078H56.0566V13.0008H52.6766V7.18078H50.4366V4.58078H47.1566C47.0966 5.02078 47.0166 5.44078 46.8766 5.86078L51.4566 8.54078L49.7966 11.0608L45.4366 8.42078ZM44.2166 14.4008H56.2966V17.3808H40.7766V12.0608H44.2166V14.4008ZM76.7348 6.54078V9.82078H74.7348V17.3808H71.3548V0.30078H74.7348V6.54078H76.7348ZM66.7148 0.76078C66.7148 3.34078 66.4748 5.66078 66.0548 7.66078L70.9948 14.6208L68.2348 16.5608L64.8348 11.5808C63.4348 14.7808 61.2948 16.5608 58.6948 16.5808V13.1008C61.4348 12.7808 63.2548 7.78078 63.2748 0.64078L66.7148 0.76078ZM82.7986 11.6808H86.4386C86.4386 12.8808 87.3986 14.2208 89.1986 14.2208C90.9986 14.2208 92.0786 12.9608 92.0786 11.0808V0.800781H95.7186V11.0808C95.7186 14.9808 93.1186 17.5008 89.1986 17.5008C85.2786 17.5008 82.8386 14.9208 82.7986 11.6808ZM98.3541 0.800781H101.994V17.1008H98.3541V0.800781ZM104.878 17.1008V0.800781H107.918L116.058 10.6008V0.600781H119.698V16.9008H116.658L108.518 7.10078V17.1008H104.878ZM122.573 0.800781H126.213V17.1008H122.573V0.800781Z" fill="white"/>
<path d="M4.38 30.4308C2.14 30.4308 0.54 29.0008 0.54 26.8508C0.54 24.7108 2.19 23.1708 4.41 23.1708C5.35 23.1708 6.21 23.4008 6.77 23.7208L6.7 24.6308C6.17 24.2608 5.32 24.0508 4.56 24.0508C2.74 24.0508 1.46 25.2408 1.46 26.8508C1.46 28.4608 2.67 29.5308 4.4 29.5308C5.16 29.5308 5.85 29.2908 6.34 28.9008V27.3008H4.89C4.49 27.3008 4.24 27.3308 4.06 27.3708L4.14 26.4708H7.26V29.4608C6.53 30.0508 5.49 30.4308 4.38 30.4308ZM8.6118 30.3008C8.6718 30.0208 8.7018 29.7608 8.7018 29.1908V26.4708C8.7018 25.9008 8.6718 25.5908 8.6118 25.3008H9.7418C9.6718 25.4908 9.6018 25.9008 9.6018 26.2608V26.7708H9.6718C9.9518 25.7608 10.6018 25.1708 11.4918 25.1708C11.7618 25.1708 12.0418 25.2208 12.2118 25.2908V26.1308C12.0518 26.0108 11.7018 25.9108 11.3818 25.9108C10.4618 25.9108 9.6018 26.7808 9.6018 27.8308V29.3108C9.6018 29.7708 9.6218 30.0608 9.7018 30.3008H8.6118ZM15.673 30.4308C14.013 30.4308 12.883 29.3208 12.883 27.8008C12.883 26.2808 14.013 25.1708 15.683 25.1708C17.333 25.1708 18.463 26.2808 18.463 27.8008C18.463 29.3208 17.323 30.4308 15.673 30.4308ZM15.673 29.7508C16.763 29.7508 17.613 28.9508 17.613 27.8008C17.613 26.6508 16.763 25.8508 15.673 25.8508C14.583 25.8508 13.733 26.6508 13.733 27.8008C13.733 28.9508 14.583 29.7508 15.673 29.7508ZM22.0046 30.4308C20.6646 30.4308 19.8346 29.6808 19.8346 28.2308V26.5008C19.8346 25.9308 19.8046 25.5808 19.7446 25.3008H20.8346C20.7646 25.5808 20.7346 25.8708 20.7346 26.4408V28.0808C20.7346 29.1508 21.3346 29.6708 22.3246 29.6708C23.3846 29.6708 24.1646 28.7308 24.1646 27.8608V26.4408C24.1646 25.9808 24.1346 25.5408 24.0646 25.3008H25.1646C25.0946 25.5808 25.0546 25.8408 25.0546 26.4108V29.1208C25.0546 29.7008 25.0946 30.0208 25.1646 30.3008H24.0546C24.1346 30.0808 24.1646 29.8608 24.1646 29.3908V29.0308H24.0846C23.7446 29.9408 23.0046 30.4308 22.0046 30.4308ZM26.7077 32.3008C26.7677 32.0208 26.7977 31.6208 26.7977 31.0508V26.5508C26.7977 25.9808 26.7677 25.5808 26.7077 25.3008H27.7877C27.7277 25.5508 27.6877 25.8208 27.6877 26.1808V26.5708H27.7877C28.0777 25.8508 28.8177 25.1708 29.8877 25.1708C31.3477 25.1708 32.3077 26.2808 32.3077 27.8008C32.3077 29.3208 31.3477 30.4308 29.8877 30.4308C28.8477 30.4308 28.0777 29.8408 27.7877 29.0308H27.6877V31.0508C27.6877 31.6208 27.7377 32.0208 27.7977 32.3008H26.7077ZM29.5377 29.7008C30.6377 29.7008 31.4477 28.9208 31.4477 27.8008C31.4477 26.6808 30.6377 25.9008 29.5377 25.9008C28.4877 25.9008 27.6977 26.8308 27.6977 27.8008C27.6977 28.8208 28.4877 29.7008 29.5377 29.7008ZM34.4635 30.3008C34.4535 29.8608 34.3535 29.3708 34.2435 28.9108L32.9235 24.5508C32.7735 23.9808 32.6435 23.5808 32.5135 23.3008H33.6435C33.6535 23.5208 33.6935 23.8008 33.8235 24.3108L35.0035 28.2008C35.0835 28.5108 35.1535 28.7708 35.2235 29.0808H35.3035L37.0435 23.3008H37.8635L39.5935 29.0808H39.6735C39.7435 28.7808 39.8035 28.5308 39.8835 28.2308L41.0835 24.3108C41.2035 23.8008 41.2535 23.5208 41.2635 23.3008H42.3835C42.2535 23.5808 42.1335 23.9808 41.9835 24.5508L40.6635 28.8908C40.5435 29.3608 40.4535 29.8808 40.4435 30.3008H39.1735L37.4935 24.6808H37.4135L35.7335 30.3008H34.4635ZM44.7787 30.4308C43.4387 30.4308 42.6687 29.7008 42.6687 28.7108C42.6687 27.7108 43.4387 26.9908 44.7887 26.9908C45.7987 26.9908 46.4787 27.5008 46.6987 28.0008H46.7987V27.1708C46.7987 26.2508 46.2087 25.7908 45.0687 25.7908C44.2687 25.7908 43.4587 26.0608 43.2587 26.1908V25.5108C43.5887 25.3808 44.4587 25.1708 45.2087 25.1708C46.6487 25.1708 47.6587 25.6708 47.6587 27.0608V29.0808C47.6587 29.7408 47.6787 30.0408 47.7587 30.3008H46.6987C46.7487 30.1608 46.7987 29.8608 46.7987 29.5208V29.4408H46.7187C46.4887 29.9808 45.8087 30.4308 44.7787 30.4308ZM45.1187 29.8108C46.1287 29.8108 46.7887 29.4208 46.7887 28.7008C46.7887 28.1808 46.1287 27.5808 45.1187 27.5808C44.1087 27.5808 43.5287 28.0408 43.5287 28.7008C43.5287 29.3508 44.1087 29.8108 45.1187 29.8108ZM49.2563 30.3008C49.3163 30.0208 49.3463 29.7608 49.3463 29.1908V26.4708C49.3463 25.9008 49.3163 25.5908 49.2563 25.3008H50.3863C50.3163 25.4908 50.2463 25.9008 50.2463 26.2608V26.7708H50.3163C50.5963 25.7608 51.2463 25.1708 52.1363 25.1708C52.4063 25.1708 52.6863 25.2208 52.8563 25.2908V26.1308C52.6963 26.0108 52.3463 25.9108 52.0263 25.9108C51.1063 25.9108 50.2463 26.7808 50.2463 27.8308V29.3108C50.2463 29.7708 50.2663 30.0608 50.3463 30.3008H49.2563ZM56.5876 30.4308C54.7776 30.4308 53.5276 29.3508 53.5276 27.8008C53.5276 26.2808 54.7376 25.1708 56.3776 25.1708C58.0376 25.1708 58.9876 25.9608 58.9876 26.9408C58.9876 27.9608 58.2376 28.3708 56.6476 28.3708C55.7676 28.3708 54.9976 28.1408 54.4076 27.7908L54.3576 27.8208C54.3776 28.9908 55.4676 29.7508 56.7376 29.7508C57.5976 29.7508 58.4576 29.5108 58.8376 29.1608L58.8476 29.9308C58.3976 30.2208 57.4476 30.4308 56.5876 30.4308ZM56.3976 27.8608C57.1976 27.8608 58.1376 27.7008 58.1376 26.9308C58.1376 26.3408 57.3776 25.8208 56.3476 25.8208C55.4276 25.8208 54.5176 26.3808 54.3776 27.3708C54.8976 27.6708 55.6576 27.8608 56.3976 27.8608ZM65.5198 30.4308C64.6598 30.4308 63.3398 30.1408 62.5398 29.7408L62.5698 28.7008C63.3898 29.2708 64.6098 29.5608 65.5098 29.5608C66.5798 29.5608 67.3598 29.1308 67.3598 28.4108C67.3598 26.6708 62.7698 27.8208 62.7698 25.1708C62.7698 24.0208 63.8998 23.1708 65.4798 23.1708C66.4598 23.1708 67.3298 23.4208 67.8498 23.6608V24.6608C67.3498 24.3608 66.4898 24.0608 65.4898 24.0608C64.3798 24.0608 63.7098 24.5208 63.7098 25.1508C63.7098 26.9008 68.3098 25.7808 68.3098 28.3808C68.3098 29.6108 67.1998 30.4308 65.5198 30.4308ZM71.9595 32.6308C71.0295 32.6308 70.1895 32.4408 69.4895 32.0808V31.2608C70.1395 31.7208 70.9695 31.9608 71.8595 31.9608C73.1895 31.9608 74.2895 31.4408 74.2895 29.9508C74.2895 29.6308 74.2095 29.3608 73.9995 29.0208H73.9295C73.5895 29.9408 72.7995 30.4308 71.7995 30.4308C70.4595 30.4308 69.6395 29.6808 69.6395 28.2308V26.5008C69.6395 25.9308 69.5995 25.5808 69.5395 25.3008H70.6295C70.5595 25.5808 70.5295 25.8708 70.5295 26.4408V28.0808C70.5295 29.1508 71.1295 29.6708 72.1195 29.6708C73.1795 29.6708 73.9595 28.7308 73.9595 27.8608V26.4408C73.9595 25.9808 73.9395 25.5408 73.8595 25.3008H74.9595C74.8895 25.5808 74.8495 25.8408 74.8495 26.4108V28.9908C75.0595 29.3608 75.1495 29.6608 75.1495 30.0308C75.1495 31.8808 73.6595 32.6308 71.9595 32.6308ZM78.3727 30.4308C77.6527 30.4308 76.6527 30.2108 76.1027 29.9208V29.1108C76.6427 29.4508 77.5827 29.7308 78.3327 29.7308C79.1427 29.7308 79.6227 29.4308 79.6227 28.9308C79.6227 27.5808 76.2827 28.5108 76.2827 26.6108C76.2827 25.8408 77.0227 25.1708 78.3027 25.1708C78.9527 25.1708 79.6727 25.3508 80.1127 25.5508V26.2808C79.7727 26.1008 79.0627 25.8608 78.3327 25.8608C77.5627 25.8608 77.1027 26.1908 77.1027 26.6308C77.1027 27.8608 80.4527 26.9608 80.4527 28.9308C80.4527 29.7908 79.6627 30.4308 78.3727 30.4308ZM84.1873 30.4308C83.0073 30.4308 82.3073 29.9008 82.3073 28.6408V25.9508H81.0673V25.3008H82.3073V23.5308L83.1573 23.3008V25.3008H85.2173V25.9508H83.1573V28.4008C83.1573 29.3108 83.5473 29.6708 84.3373 29.6708C84.7573 29.6708 85.0773 29.5608 85.2373 29.4808V30.2308C85.0173 30.3308 84.6373 30.4308 84.1873 30.4308ZM88.9606 30.4308C87.1506 30.4308 85.9006 29.3508 85.9006 27.8008C85.9006 26.2808 87.1106 25.1708 88.7506 25.1708C90.4106 25.1708 91.3606 25.9608 91.3606 26.9408C91.3606 27.9608 90.6106 28.3708 89.0206 28.3708C88.1406 28.3708 87.3706 28.1408 86.7806 27.7908L86.7306 27.8208C86.7506 28.9908 87.8406 29.7508 89.1106 29.7508C89.9706 29.7508 90.8306 29.5108 91.2106 29.1608L91.2206 29.9308C90.7706 30.2208 89.8206 30.4308 88.9606 30.4308ZM88.7706 27.8608C89.5706 27.8608 90.5106 27.7008 90.5106 26.9308C90.5106 26.3408 89.7506 25.8208 88.7206 25.8208C87.8006 25.8208 86.8906 26.3808 86.7506 27.3708C87.2706 27.6708 88.0306 27.8608 88.7706 27.8608ZM92.645 30.3008C92.715 30.0208 92.745 29.7608 92.745 29.1808V26.4708C92.745 25.9008 92.715 25.5808 92.645 25.3008H93.755C93.675 25.5108 93.635 25.7408 93.635 26.2008V26.5708H93.725C94.055 25.6608 94.735 25.1708 95.735 25.1708C96.785 25.1708 97.425 25.6808 97.655 26.5708H97.735C98.075 25.6608 98.845 25.1708 99.845 25.1708C101.185 25.1708 101.875 25.9908 101.875 27.3608V29.0908C101.875 29.6608 101.915 30.0208 101.975 30.3008H100.885C100.945 30.0208 100.985 29.7208 100.985 29.1508V27.5208C100.985 26.5208 100.515 25.9208 99.535 25.9208C98.505 25.9208 97.785 26.8308 97.755 27.6708V29.1308C97.755 29.7008 97.795 30.0208 97.855 30.3008H96.785C96.845 30.0208 96.865 29.7208 96.865 29.1508V27.5208C96.865 26.5208 96.395 25.9208 95.415 25.9208C94.345 25.9208 93.635 26.8608 93.635 27.7308V29.1608C93.635 29.6208 93.665 30.0608 93.745 30.3008H92.645Z" fill="white"/>
</svg>
